<?xml version="1.0" standalone="no"?>
<!DOCTYPE svg PUBLIC "-//W3C//DTD SVG 20010904//EN"
 "http://www.w3.org/TR/2001/REC-SVG-20010904/DTD/svg10.dtd">
<svg version="1.0" xmlns="http://www.w3.org/2000/svg"
 width="2000.000000" height="2000.000000" viewBox="0 0 2000.000000 2000.000000"
 preserveAspectRatio="xMidYMid meet">
<metadata>
Created by potrace 1.14, written by Peter Selinger 2001-2017
</metadata>
<g transform="translate(0.000000,2000.000000) scale(0.100000,-0.100000)"
fill="#000000" stroke="none">
<path d="M4760 13915 l0 -1305 1310 0 1310 0 0 1305 0 1305 -1310 0 -1310 0 0
-1305z m2100 5 l0 -780 -790 0 -790 0 0 780 0 780 790 0 790 0 0 -780z"/>
<path d="M5810 13920 l0 -260 260 0 260 0 0 260 0 260 -260 0 -260 0 0 -260z"/>
<path d="M12620 13915 l0 -1305 1308 2 1307 3 3 1303 2 1302 -1310 0 -1310 0
0 -1305z m2090 5 l0 -780 -785 0 -785 0 0 780 0 780 785 0 785 0 0 -780z"/>
<path d="M12610 10945 l0 -715 505 0 505 0 0 145 0 145 -350 0 -350 0 0 570 0
570 -155 0 -155 0 0 -715z"/>
<path d="M13688 11643 c37 -70 335 -700 335 -709 0 -10 -285 -566 -340 -661
l-24 -43 168 0 168 0 140 280 140 280 50 0 50 0 140 -280 140 -280 168 0 c157
0 167 1 159 18 -231 438 -355 679 -355 687 0 6 56 125 123 265 67 140 144 301
171 358 l48 102 -163 0 -163 0 -131 -287 -131 -288 -53 -3 -54 -3 -131 288
-131 288 -166 3 c-157 2 -166 1 -158 -15z"/>
<path d="M15140 10945 l0 -715 155 0 155 0 0 215 0 215 228 0 c263 0 326 10
435 67 239 126 333 399 219 643 -38 81 -142 181 -234 225 -126 60 -169 65
-585 65 l-373 0 0 -715z m805 398 c76 -40 115 -105 115 -188 0 -58 -19 -102
-61 -142 -60 -57 -100 -65 -336 -71 l-213 -4 0 217 0 216 228 -3 c210 -3 230
-5 267 -25z"/>
<path d="M12620 9710 l0 -130 80 0 80 0 0 -450 0 -450 -80 0 -80 0 0 -130 0
-130 305 0 305 0 0 130 0 130 -80 0 -80 0 0 450 0 450 80 0 80 0 0 130 0 130
-305 0 -305 0 0 -130z"/>
<path d="M13420 9710 l0 -130 205 0 205 0 0 -575 0 -575 145 0 145 0 0 575 0
575 205 0 205 0 0 130 0 130 -555 0 -555 0 0 -130z"/>
<path d="M14760 9130 l0 -710 140 0 139 0 3 358 3 357 27 51 c30 57 84 109
137 131 21 9 67 15 109 15 103 0 157 -28 195 -102 l27 -54 0 -378 0 -378 145
0 145 0 0 375 c0 419 -7 483 -63 588 -17 32 -52 78 -78 101 -159 143 -433 151
-606 19 l-43 -33 0 185 0 185 -140 0 -140 0 0 -710z"/>
<path d="M17360 9130 l0 -710 140 0 140 0 0 50 c0 28 2 50 5 50 3 0 27 -16 54
-35 138 -100 346 -109 520 -24 86 43 188 144 229 230 92 188 93 423 3 605
-142 287 -504 389 -755 214 l-56 -39 0 184 0 185 -140 0 -140 0 0 -710z m670
188 c129 -37 197 -163 187 -342 -6 -111 -18 -153 -60 -208 -49 -66 -129 -101
-226 -102 -89 0 -147 22 -200 75 -94 94 -116 310 -46 449 62 122 195 172 345
128z"/>
<path d="M16060 9186 c0 -211 4 -405 9 -432 20 -103 51 -166 115 -230 69 -69
131 -97 252 -116 127 -20 273 15 367 86 19 14 37 26 40 26 4 0 7 -22 7 -50 l0
-50 140 0 140 0 0 575 0 575 -140 0 -140 0 0 -302 c0 -167 -5 -332 -11 -368
-25 -158 -146 -253 -302 -236 -84 9 -135 40 -166 101 l-26 49 -3 378 -3 378
-140 0 -139 0 0 -384z"/>
<path d="M4760 6105 l0 -1305 1310 0 1310 0 0 1305 0 1305 -1310 0 -1310 0 0
-1305z m2098 -2 l-3 -778 -785 0 -785 0 -3 778 -2 777 790 0 790 0 -2 -777z"/>
<path d="M12620 6105 l0 -1305 1310 0 1310 0 -2 1303 -3 1302 -1307 3 -1308 2
0 -1305z m2090 -5 l0 -780 -785 0 -785 0 0 780 0 780 785 0 785 0 0 -780z"/>
</g>
</svg>
